<svg id="Camada_1" data-name="Camada 1" xmlns="http://www.w3.org/2000/svg" viewBox="0 0 200 100"><defs><style>.cls-1{fill:#fff;}</style></defs><title>icons</title><path class="cls-1" d="M35,63.48h4.45V48.91H52.37V45.17H39.47V35.64H54V31.93H35Z"/><path class="cls-1" d="M160.78,59.82a18,18,0,0,1-6.26.32,4.29,4.29,0,0,1-3.75-3.2,17.79,17.79,0,0,1-.62-4c-.08-4,0-8.06,0-12.08v-1h-4.24c0,.28,0,.49,0,.7,0,4.21,0,8.43,0,12.64a21.37,21.37,0,0,0,.43,4,8,8,0,0,0,7.54,6.75A36.1,36.1,0,0,0,164.44,63c.64-.13.57-.51.57-.94V39.81h-4.23Z"/><path class="cls-1" d="M123.22,59.44c-1.45.28-2.83.66-4.22.8-3,.29-4.5-1.06-4.79-4l0-.4q0-6-.07-12.08a2.44,2.44,0,0,1,.08-.44H123V39.75h-9V32.4l-4.22.74v1c0,6.55,0,13.1,0,19.65,0,1.1.06,2.2.16,3.3.33,3.49,2,5.77,4.84,6.49a12.27,12.27,0,0,0,5.9.15c1.11-.26,2.18-.63,3.28-1-.27-1.15-.5-2.11-.73-3.07A2.64,2.64,0,0,0,123.22,59.44Z"/><path class="cls-1" d="M66.93,60.42l-.51-.1c-2.21-.29-2.92-1.07-3-3.3,0-.16,0-.32,0-.49q0-13.72,0-27.47c0-.31,0-.61-.05-1-1.19.21-2.27.46-3.35.56-.75.07-.89.38-.89,1.07q0,13.58,0,27.15c0,.4,0,.81,0,1.21.33,4.13,3.21,6.46,7.22,5.78Z"/><path class="cls-1" d="M141.28,43.65c.25-1.29.48-2.48.71-3.69l-.4-.12a22.83,22.83,0,0,0-12.29.64,1,1,0,0,0-.81,1.13c0,7,0,14,0,21,0,.28,0,.56,0,.83h4.21V43.62A14.42,14.42,0,0,1,141.28,43.65Z"/><path class="cls-1" d="M71.71,39.82V63.48h4.18V39.82Z"/><path class="cls-1" d="M76.51,32.8a2.7,2.7,0,0,0-2.66-2.9A2.72,2.72,0,0,0,71,32.59a2.74,2.74,0,1,0,5.47.21Z"/><path class="cls-1" d="M87.47,62.65v9.26H83.28c0-.27,0-.53,0-.79q0-14.91,0-29.8c0-.61.14-.88.78-1a31.23,31.23,0,0,1,10-.93,11,11,0,0,1,9.82,9.2,16.87,16.87,0,0,1-.61,8.57,9.8,9.8,0,0,1-9.94,6.93,12,12,0,0,1-5.13-1.2c-.17-.08-.33-.17-.5-.24S87.6,62.63,87.47,62.65Zm0-11.59c0,2.26,0,4.51,0,6.77a1,1,0,0,0,.57,1,18.3,18.3,0,0,0,3,1.21c3.55.82,7-.42,8.17-4.31a13.64,13.64,0,0,0,.17-7.31,6.67,6.67,0,0,0-6-5.3,50.4,50.4,0,0,0-5.2.24c-.56,0-.7.31-.69.83C87.49,46.5,87.48,48.78,87.48,51.06Z"/><path class="cls-1" d="M35,63.48V31.93H54v3.71H39.47v9.53h12.9v3.74H39.44V63.48Z"/><path class="cls-1" d="M160.78,59.82v-20H165V62.05c0,.43.07.81-.57.94a36.1,36.1,0,0,1-10.62.91,8,8,0,0,1-7.54-6.75,21.37,21.37,0,0,1-.43-4c-.06-4.21,0-8.43,0-12.64,0-.21,0-.42,0-.7h4.24v1c0,4,0,8.05,0,12.08a17.79,17.79,0,0,0,.62,4,4.29,4.29,0,0,0,3.75,3.2A18,18,0,0,0,160.78,59.82Z"/><path class="cls-1" d="M123.22,59.44a2.64,2.64,0,0,1,.09.31c.23,1,.46,1.92.73,3.07-1.1.32-2.17.69-3.28,1a12.27,12.27,0,0,1-5.9-.15c-2.85-.72-4.51-3-4.84-6.49-.1-1.1-.16-2.2-.16-3.3,0-6.55,0-13.1,0-19.65v-1l4.22-.74v7.35h9v3.57h-8.85a2.44,2.44,0,0,0-.08.44q0,6,.07,12.08l0,.4c.29,2.94,1.83,4.29,4.79,4C120.39,60.1,121.77,59.72,123.22,59.44Z"/><path class="cls-1" d="M66.93,60.42l-.57,3.44c-4,.68-6.89-1.65-7.22-5.78,0-.4,0-.81,0-1.21q0-13.57,0-27.15c0-.69.14-1,.89-1.07,1.08-.1,2.16-.35,3.35-.56,0,.36.05.66.05,1q0,13.74,0,27.47c0,.17,0,.33,0,.49.09,2.23.8,3,3,3.3Z"/><path class="cls-1" d="M141.28,43.65a14.42,14.42,0,0,0-8.53,0V63.46h-4.21c0-.27,0-.55,0-.83,0-7,0-14,0-21a1,1,0,0,1,.81-1.13,22.83,22.83,0,0,1,12.29-.64l.4.12C141.76,41.17,141.53,42.36,141.28,43.65Z"/><path class="cls-1" d="M71.71,39.82h4.18V63.48H71.71Z"/><path class="cls-1" d="M76.51,32.8A2.74,2.74,0,1,1,71,32.59a2.72,2.72,0,0,1,2.81-2.69A2.7,2.7,0,0,1,76.51,32.8Z"/></svg>