<svg id="Camada_1" data-name="Camada 1" xmlns="http://www.w3.org/2000/svg" viewBox="0 0 100 100"><defs><style>.cls-1{fill:#272736;}.cls-2{fill:#f9c203;}.cls-3{fill:#f7f7f7;}</style></defs><title>icons</title><path class="cls-1" d="M16.19,81.93a3.47,3.47,0,0,1-.9-1.11c.21-4.9.48-9.81.86-14.7a1.27,1.27,0,0,1,1.16-1.34c1.41-.38,1.4-.41,1.31-1.85s.26-2.19,1.43-2.69a9.07,9.07,0,0,1,9.82,1.23c.16.13.26.39.66.31a9.42,9.42,0,0,0-6.14-2.9c-.77-.07-1.73.44-2.27-.19a6.39,6.39,0,0,1-.84-2.23c-1.47-4.68-2.2-9.39-.56-14.21a26.25,26.25,0,0,1,7-11c7.15-6.62,15.72-9.45,25.36-9a27,27,0,0,1,16.72,6.35,30.85,30.85,0,0,1,8.81,13.33,25.93,25.93,0,0,1,.92,15.53c-.16.63-.36.78-1,.67a8.82,8.82,0,0,0-7.08,1.49,1.44,1.44,0,0,0,1-.18,9.19,9.19,0,0,1,6.08-.72c3.26.73,3.89,1.69,3.19,5-.09.43,0,.69.42.76a1.78,1.78,0,0,1,1.6,1.83c.06.53.18,1.05.26,1.58.6,4.26.7,8.54.91,12.82a4.55,4.55,0,0,1-1.1,1.33c0-1.19-.13-2.38-.13-3.57,0-.65-.13-1.08-.89-1.12-.19,0-.62,0-.51-.42s.43-.23.67-.17c.39.11.69.19.65-.42-.22-3.29-.49-6.58-.94-9.86-.1-.71-.67-.63-1.1-.82s-.7.06-.93.41a4.62,4.62,0,0,1-1.93,1.68,1.57,1.57,0,0,1-2.19-.56,7.08,7.08,0,0,1-1.08-2.43,1,1,0,0,0-.9-.8,132.76,132.76,0,0,0-20.58-2,131.29,131.29,0,0,0-27.64,1.9c-.52.1-.77.27-.87.79a10.2,10.2,0,0,1-1.09,3.11,1.82,1.82,0,0,1-3,.69,5.64,5.64,0,0,1-1.9-2.21c-.17-.35-.28-.76-.81-.55s-1.21,0-1.32.91c-.39,3-.66,6.09-.89,9.15-.05.66.18.74.74.61.36-.08.93-.49,1.06.08s-.61.48-.95.54c-.65.13-1,.36-1,1.08C16.34,79.25,16.24,80.59,16.19,81.93ZM54.73,59.84c3.05.2,5.77-1.27,7.84-4a4.53,4.53,0,0,0,.87-4c-.52-2.12-2.36-2.67-4-1.18-.53.48-1,1-1.48,1.55a2.55,2.55,0,0,1-2.64.86c-1.63-.36-3.27-.64-4.92-.89a10.15,10.15,0,0,0-4.25.11,2.5,2.5,0,0,0-1.4,4.23,6.52,6.52,0,0,0,2.62,1.94A17.76,17.76,0,0,0,54.73,59.84Zm-15-12A6,6,0,0,0,38.39,44c-.73-.81-1.71-.73-2,.19a5.6,5.6,0,0,0,.8,5.17,1.47,1.47,0,0,0,1.65.6c.64-.19.74-.79.81-1.36C39.69,48.34,39.69,48.1,39.7,47.84Zm22.4-6.39a4.92,4.92,0,0,0,1.18,3.26,1.31,1.31,0,0,0,1.37.46c.55-.16.63-.68.68-1.15a5.74,5.74,0,0,0-.71-3.44c-.37-.67-.87-1.33-1.73-1.12s-.73,1.1-.79,1.79A1.11,1.11,0,0,0,62.1,41.45Z"/><path class="cls-2" d="M84.88,80.61c-.21-4.28-.31-8.56-.91-12.82-.08-.53-.2-1.05-.26-1.58a1.78,1.78,0,0,0-1.6-1.83c-.47-.07-.51-.33-.42-.76.7-3.28.07-4.24-3.19-5a9.19,9.19,0,0,0-6.08.72,1.44,1.44,0,0,1-1,.18,8.82,8.82,0,0,1,7.08-1.49c.65.11.85,0,1-.67a25.93,25.93,0,0,0-.92-15.53,30.85,30.85,0,0,0-8.81-13.33A27,27,0,0,0,53.1,22.18c-9.64-.41-18.21,2.42-25.36,9a26.25,26.25,0,0,0-7,11c-1.64,4.82-.91,9.53.56,14.21a6.39,6.39,0,0,0,.84,2.23c.54.63,1.5.12,2.27.19a9.42,9.42,0,0,1,6.14,2.9c-.4.08-.5-.18-.66-.31a9.07,9.07,0,0,0-9.82-1.23c-1.17.5-1.51,1.22-1.43,2.69s.1,1.47-1.31,1.85a1.27,1.27,0,0,0-1.16,1.34c-.38,4.89-.65,9.8-.86,14.7a15.36,15.36,0,0,1-3.16-7.45A31.61,31.61,0,0,1,11.76,68c0-12.83,0-25.66,0-38.49,0-4,.67-7.77,3-11.11a16.41,16.41,0,0,1,12.49-7.15A42.59,42.59,0,0,1,31.6,11c12.74,0,25.48,0,38.22,0a19.3,19.3,0,0,1,10.5,2.62,16,16,0,0,1,7.55,11.46,31.66,31.66,0,0,1,.37,5.42c0,12.83,0,25.66,0,38.49A19.23,19.23,0,0,1,85.41,79.9C85.24,80.15,85.06,80.38,84.88,80.61Zm-58-66.73a13.93,13.93,0,0,0-11,6.5,9.17,9.17,0,0,0-1.06,8.76A24.81,24.81,0,0,0,17,33.57a.86.86,0,0,1-.16,1.28,14.31,14.31,0,0,0-2.64,3c-.15.24-.4.51-.13.8s.6.23,1,.05a18.81,18.81,0,0,0,3.14-2.16q7.07-5.74,14.12-11.5c2.42-2,4.81-4,7.2-6a9.63,9.63,0,0,0,2-2,.77.77,0,0,0,.08-.92c-.21-.27-.54-.21-.82-.09a7.37,7.37,0,0,0-.79.41c-.91.57-1.83,1.12-2.7,1.74-.57.41-.9.36-1.36-.2A11.21,11.21,0,0,0,26.91,13.88Z"/><path class="cls-2" d="M16.19,81.93c0-1.34.15-2.68.14-4,0-.72.3-1,1-1.08.34-.06,1.11.15.95-.54s-.7-.16-1.06-.08c-.56.13-.79.05-.74-.61.23-3.06.5-6.11.89-9.15.11-.88.81-.71,1.32-.91s.64.2.81.55a5.64,5.64,0,0,0,1.9,2.21,1.82,1.82,0,0,0,3-.69,10.2,10.2,0,0,0,1.09-3.11c.1-.52.35-.69.87-.79a131.29,131.29,0,0,1,27.64-1.9,132.76,132.76,0,0,1,20.58,2,1,1,0,0,1,.9.8,7.08,7.08,0,0,0,1.08,2.43,1.57,1.57,0,0,0,2.19.56A4.62,4.62,0,0,0,80.6,66c.23-.35.46-.62.93-.41s1,.11,1.1.82c.45,3.28.72,6.57.94,9.86,0,.61-.26.53-.65.42-.24-.06-.56-.23-.67.17s.32.41.51.42c.76,0,.89.47.89,1.12,0,1.19.09,2.38.13,3.57A15.7,15.7,0,0,1,74,87.13a37.13,37.13,0,0,1-5.86.37c-12.64,0-25.29,0-37.93,0a19.33,19.33,0,0,1-10.88-2.82A14.17,14.17,0,0,1,16.19,81.93Zm48.08-8.48c-.23.33-.84-.13-.85.44s.48.31.76.35.82.09,1.23.14c.23,0,.33-.08.35-.29s-.05-.3-.23-.31A2.66,2.66,0,0,1,64.27,73.45ZM70.16,75s.32.08.35-.29-.24-.3-.43-.33c-.47-.08-.94-.13-1.41-.2-.24,0-.5-.08-.53.28s.23.31.42.33Zm-20-1.41c.41-.21,1.2.28,1.21-.31s-.79-.29-1.21-.33-1-.26-1,.24C49.14,73.85,49.87,73.32,50.2,73.55Zm9.55.33.82,0c.21,0,.44,0,.45-.28s-.24-.29-.43-.3c-.5,0-1-.09-1.51-.12-.21,0-.43,0-.44.28s.15.29.34.31ZM21,76.12l1.62-.29c.22,0,.41-.11.33-.4s-.22-.24-.42-.21l-1.57.3c-.23,0-.42.09-.34.39A.28.28,0,0,0,21,76.12Zm58.41.44c.21,0,.42.06.49-.22s-.13-.36-.33-.4c-.52-.11-1-.19-1.57-.3-.25,0-.42,0-.46.25s.18.33.39.37ZM31.65,73.9l-1.31.17c-.15,0-.29.07-.29.26s.12.33.34.31a11.88,11.88,0,0,0,1.32-.16c.26,0,.78.16.69-.39S31.91,74,31.65,73.9Zm8.85-.2c.36,0,.6,0,.83,0s.6.09.6-.32-.36-.29-.6-.29a2.34,2.34,0,0,0-.7.06c-.35.11-1-.23-1,.32S40.29,73.59,40.5,73.7ZM25.71,75.32l1.64-.25c.18,0,.34-.09.32-.33s-.23-.29-.44-.26l-1.57.23c-.18,0-.34.09-.32.33S25.57,75.33,25.71,75.32Zm10.14-1.18c.38-.29,1.28.15,1.22-.44s-.87-.2-1.33-.18c-.3,0-1-.24-.89.36S35.5,74,35.85,74.14Zm37.53.68c-.2,0-.43-.1-.5.21s.12.36.34.4l1.58.26c.17,0,.35,0,.41-.21s-.13-.37-.35-.41Zm-28-1.29h.81c.23,0,.51,0,.51-.32s-.29-.31-.52-.29a4.07,4.07,0,0,0-.78.11c-.36.09-1-.25-1,.25S45.11,73.41,45.39,73.53ZM55.08,73c-.39.17-1.1-.28-1.12.3s.72.28,1.1.29,1.11.35,1.13-.18C56.22,72.65,55.43,73.24,55.08,73Z"/><path class="cls-3" d="M54.73,59.84a17.76,17.76,0,0,1-7.33-1.36,6.52,6.52,0,0,1-2.62-1.94,2.5,2.5,0,0,1,1.4-4.23,10.15,10.15,0,0,1,4.25-.11c1.65.25,3.29.53,4.92.89A2.55,2.55,0,0,0,58,52.23c.48-.53.95-1.07,1.48-1.55,1.61-1.49,3.45-.94,4,1.18a4.53,4.53,0,0,1-.87,4C60.5,58.57,57.78,60,54.73,59.84Z"/><path class="cls-3" d="M39.7,47.84c0,.26,0,.5,0,.74-.07.57-.17,1.17-.81,1.36a1.47,1.47,0,0,1-1.65-.6,5.6,5.6,0,0,1-.8-5.17c.28-.92,1.26-1,2-.19A6,6,0,0,1,39.7,47.84Z"/><path class="cls-3" d="M62.1,41.45a1.11,1.11,0,0,1,0-.2c.06-.69-.13-1.56.79-1.79s1.36.45,1.73,1.12A5.74,5.74,0,0,1,65.33,44c0,.47-.13,1-.68,1.15a1.31,1.31,0,0,1-1.37-.46A4.92,4.92,0,0,1,62.1,41.45Z"/><path class="cls-1" d="M26.91,13.88A11.21,11.21,0,0,1,35.85,18c.46.56.79.61,1.36.2.87-.62,1.79-1.17,2.7-1.74A7.37,7.37,0,0,1,40.7,16c.28-.12.61-.18.82.09a.77.77,0,0,1-.08.92,9.63,9.63,0,0,1-2,2c-2.39,2-4.78,4-7.2,6q-7,5.77-14.12,11.5A18.81,18.81,0,0,1,15,38.71c-.36.18-.67.25-1-.05s0-.56.13-.8a14.31,14.31,0,0,1,2.64-3A.86.86,0,0,0,17,33.57a24.81,24.81,0,0,1-2.07-4.43A9.17,9.17,0,0,1,16,20.38,13.93,13.93,0,0,1,26.91,13.88Z"/><path class="cls-1" d="M64.27,73.45a2.66,2.66,0,0,0,1.26.33c.18,0,.24.14.23.31s-.12.32-.35.29c-.41,0-.82-.06-1.23-.14s-.76.12-.76-.35S64,73.78,64.27,73.45Z"/><path class="cls-1" d="M70.16,75l-1.6-.21c-.19,0-.45,0-.42-.33s.29-.31.53-.28c.47.07.94.12,1.41.2.19,0,.45,0,.43.33S70.21,75,70.16,75Z"/><path class="cls-1" d="M50.2,73.55c-.33-.23-1.06.3-1-.4,0-.5.69-.27,1-.24s1.22-.36,1.21.33S50.61,73.34,50.2,73.55Z"/><path class="cls-1" d="M59.75,73.88,59,73.81c-.19,0-.36-.07-.34-.31s.23-.3.44-.28c.51,0,1,.07,1.51.12.19,0,.44,0,.43.3s-.24.28-.45.28Z"/><path class="cls-1" d="M21,76.12a.28.28,0,0,1-.38-.21c-.08-.3.11-.35.34-.39l1.57-.3c.2,0,.36,0,.42.21s-.11.36-.33.4Z"/><path class="cls-1" d="M79.42,76.56l-1.48-.3c-.21,0-.43-.07-.39-.37s.21-.3.46-.25c.52.11,1,.19,1.57.3.2,0,.42.1.33.4S79.63,76.6,79.42,76.56Z"/><path class="cls-1" d="M31.65,73.9c.26.07.68-.26.75.19s-.43.34-.69.39a11.88,11.88,0,0,1-1.32.16c-.22,0-.33-.09-.34-.31s.14-.24.29-.26Z"/><path class="cls-1" d="M40.5,73.7c-.21-.11-.87.36-.88-.23s.66-.21,1-.32a2.34,2.34,0,0,1,.7-.06c.24,0,.59-.14.6.29s-.37.29-.6.32S40.86,73.7,40.5,73.7Z"/><path class="cls-1" d="M25.71,75.32c-.14,0-.34,0-.37-.28s.14-.3.32-.33l1.57-.23c.21,0,.42,0,.44.26s-.14.3-.32.33Z"/><path class="cls-1" d="M35.85,74.14c-.35-.19-.94.31-1-.26s.59-.35.89-.36c.46,0,1.27-.49,1.33.18S36.23,73.85,35.85,74.14Z"/><path class="cls-1" d="M73.38,74.82l1.48.25c.22,0,.41.12.35.41s-.24.24-.41.21l-1.58-.26c-.22,0-.41-.12-.34-.4S73.18,74.82,73.38,74.82Z"/><path class="cls-1" d="M45.39,73.53c-.28-.12-1,.31-1-.25s.66-.16,1-.25a4.07,4.07,0,0,1,.78-.11c.23,0,.52-.06.52.29s-.28.31-.51.32Z"/><path class="cls-1" d="M55.08,73c.35.26,1.14-.33,1.11.41,0,.53-.75.18-1.13.18s-1.11.26-1.1-.29S54.69,73.15,55.08,73Z"/></svg>