<svg id="Camada_1" data-name="Camada 1" xmlns="http://www.w3.org/2000/svg" viewBox="0 0 100 100"><defs><style>.cls-1{fill:#012d8a;}.cls-2{fill:#019be0;}</style></defs><title>icons</title><path class="cls-1" d="M7.5,86.22c1.07-2,.9-4.26,1.32-6.39.55-2.85.95-5.73,1.37-8.6.11-.76.32-1.38,1.19-1.36,2.73.06,5.48-.26,8.19.2,3,.5,4.31,2.38,3.95,5.33q-.81,6.51-7.4,6.7a12.2,12.2,0,0,1-1.71,0c-1.09-.11-1.56.43-1.69,1.44s-.34,2.13-.45,3.21-.62,1.66-1.77,1.52c-1-.12-2.06.28-3-.34ZM15,78.48c.44,0,.67,0,.89,0a2.75,2.75,0,0,0,2.79-3c-.05-1.36-.87-1.85-2.84-2-1.13-.06-1.7.31-1.77,1.45a9.59,9.59,0,0,1-.27,1.86C13.44,78.09,13.7,78.79,15,78.48Z"/><path class="cls-1" d="M41.28,57.48c-3.37,0-6.73,0-10.09,0-1.68,0-2.17-.58-1.92-2.18l7-44.53a2.62,2.62,0,0,1,2.9-2.52c6.83.11,13.67-.33,20.49.27a18.94,18.94,0,0,1,5,1.08,10,10,0,0,1,7,10.22c0,.91-.06,1.82-.08,2.72-.24,1-.45,2-.74,3-2.07,7.12-6.54,11.69-14,13.09-3.33.63-6.7.42-10.06.43a2.66,2.66,0,0,0-3,2.42Q42.5,49.47,41.28,57.48Z"/><path class="cls-2" d="M41.28,57.48q1.23-8,2.48-16a2.66,2.66,0,0,1,3-2.42c3.36,0,6.73.2,10.06-.43,7.44-1.4,11.91-6,14-13.09.29-1,.5-2,.74-3a7.67,7.67,0,0,1,4.39,6.64,19.2,19.2,0,0,1-2.54,11.64c-3,5.29-8,7.16-13.77,7.37-4.33.16-4.71-.33-5.37,4.74-.35,2.7-.83,5.39-1.26,8.08-.32,2.06-.95,2.62-3,2.63H42.76c-2.07,0-2.35-.35-2.06-2.45C40.87,60,41.08,58.72,41.28,57.48Z"/><path class="cls-2" d="M62.58,69.86a23.1,23.1,0,0,1,4.77.25,4.25,4.25,0,0,1,3.59,5.12c-.6,4.7-3,6.81-7.74,6.88-2.78,0-2.78,0-3.25,2.81,0,.22-.05.45-.08.67-.37,2.62-1.52,3.35-4.14,2.68-.71-.19-.72-.62-.63-1.16.84-5.29,1.7-10.57,2.51-15.86a1.43,1.43,0,0,1,1.72-1.41C60.41,69.9,61.49,69.86,62.58,69.86Zm-.19,8.61c.48,0,.76,0,1,0a2.66,2.66,0,0,0,2.64-3.07c-.11-1.78-1.42-1.75-2.7-1.85s-1.86.16-1.84,1.5a7.67,7.67,0,0,1-.32,2C60.89,78.27,61.39,78.68,62.39,78.47Z"/><path class="cls-1" d="M34.05,88.25c-.58-.13-1.6.45-1.95-.8-.08-.3-.38-.15-.57,0s-.58.37-.89.51c-2.05.91-4.14,1-6-.35s-2.26-3.43-1.83-5.67a7.18,7.18,0,0,1,8.61-6,3.36,3.36,0,0,1,1.69.74c.38.36.6.58.93-.13.24-.53,3.35-.72,3.83-.36s.21.81.15,1.24c-.49,3.15-1,6.29-1.44,9.45C36.38,88.46,35.32,88.3,34.05,88.25Zm-4.36-3a3.54,3.54,0,0,0,3.62-3.49A2.51,2.51,0,0,0,30.54,79a3.62,3.62,0,0,0-3.61,3.7C27,84.32,28,85.24,29.69,85.23Z"/><path class="cls-2" d="M79.62,86.9a7.61,7.61,0,0,1-3.32,1.59,5,5,0,0,1-6.13-4.23,7.35,7.35,0,0,1,8.7-8.35,3.82,3.82,0,0,1,1.55.65c.56.46.58.54,1.19-.15.84-.94,2.41-.55,3.55-.24.87.24.29,1.3.19,2-.43,2.93-.93,5.84-1.36,8.77-.15,1.07-.72,1.56-1.72,1.33S79.7,89.16,79.62,86.9Zm-2.77-1.67a3.57,3.57,0,0,0,3.89-3.39,2.49,2.49,0,0,0-2.5-2.8,3.7,3.7,0,0,0-3.93,3.58A2.49,2.49,0,0,0,76.85,85.23Z"/><path class="cls-1" d="M46.25,83c1.43-2.1,2.73-4,4-5.91.59-.86,3.69-1.51,4.48-.92s0,1-.25,1.41c-2.7,3.95-5.43,7.87-8.15,11.8a6.45,6.45,0,0,0-.87,1.26c-.86,2.35-2.8,2.11-4.68,2-.69,0-1.15-.3-.56-1.07a2.56,2.56,0,0,1,.28-.42c3-2.7,2.87-5.74,1.19-9.09a40.67,40.67,0,0,1-1.65-4.65c-.32-.91-.16-1.34.94-1.39,3-.13,3-.17,3.88,2.67C45.32,80,45.75,81.37,46.25,83Z"/><path class="cls-2" d="M88.35,88.27c-2.25,0-2.24,0-1.91-2.11.8-5,1.58-10,2.37-15,.09-.54,0-1.27.83-1.26,1.07,0,2.18-.33,3.18.24.34.19.14.62.08,1-.8,5.06-1.65,10.11-2.38,15.18C90.3,87.78,89.81,88.65,88.35,88.27Z"/></svg>